
<svg width="473px" height="148px" viewBox="0 0 473 148" version="1.1" xmlns="http://www.w3.org/2000/svg" xmlns:xlink="http://www.w3.org/1999/xlink">
    <defs>
        <path d="M0.171,87.987 C0.171,87.987 9.104,9.67 84.141,29.093 C196.77,58.249 170.392,-3.891 258.89,0.305 C341.13,4.202 340.740017,87.987 340.740017,87.987 L0.171,87.987" id="path-1"></path>
        <linearGradient x1="37.6872215%" y1="48.0553141%" x2="63.2327044%" y2="56.3902803%" id="linearGradient-3">
            <stop stop-color="#2FCC71" offset="0%"></stop>
            <stop stop-color="#2FCC71" offset="100%"></stop>
        </linearGradient>
        <path d="M0.667,147.987 C0.667,147.987 -2.135,105.743 44.58,105.743 C91.29,105.743 127.64,104.216 138.06,40.841 C146.55,-10.827 226.73,-11.459 244.27,30.798 C261.81,73.055 292.47,73.055 292.47,73.055 L292.47,148 L0.667,147.987" id="path-4"></path>
        <linearGradient x1="37.22826%" y1="42.2881687%" x2="61.8996886%" y2="69.3084233%" id="linearGradient-6">
            <stop stop-color="#2FCC71" offset="0%"></stop>
            <stop stop-color="#2FCC71" offset="100%"></stop>
        </linearGradient>
    </defs>
    <g id="Page-1" stroke="none" stroke-width="1" fill="none" fill-rule="evenodd">
        <g id="1926198" transform="translate(-808.000000, -352.000000)">
            <g id="Group" transform="translate(808.000000, 352.000000)">
                <g id="Group-156" transform="translate(0.000000, 60.000000)">
                    <mask id="mask-2" fill="white">
                        <use xlink:href="#path-1"></use>
                    </mask>
                    <g id="Clip-155"></g>
                    <path d="M0.171,87.987 C0.171,87.987 9.104,9.67 84.141,29.093 C196.77,58.249 170.392,-3.891 258.89,0.305 C341.13,4.202 340.740017,87.987 340.740017,87.987 L0.171,87.987" id="Fill-154" fill="url(#linearGradient-3)" mask="url(#mask-2)"></path>
                </g>
                <g id="Group-159" transform="translate(180.000000, 0.000000)">
                    <mask id="mask-5" fill="white">
                        <use xlink:href="#path-4"></use>
                    </mask>
                    <g id="Clip-158"></g>
                    <path d="M0.667,147.987 C0.667,147.987 -2.135,105.743 44.58,105.743 C91.29,105.743 127.64,104.216 138.06,40.841 C146.55,-10.827 226.73,-11.459 244.27,30.798 C261.81,73.055 292.47,73.055 292.47,73.055 L292.47,148 L0.667,147.987" id="Fill-157" fill="url(#linearGradient-6)" mask="url(#mask-5)"></path>
                </g>
            </g>
        </g>
    </g>
</svg>