<svg width="672px" height="676px" viewBox="0 0 672 676" version="1.1" xmlns="http://www.w3.org/2000/svg" xmlns:xlink="http://www.w3.org/1999/xlink">
    <g id="Page-1" stroke="none" stroke-width="1" fill="none" fill-rule="evenodd">
        <g id="image-from-rawpixel-id-399479-original" transform="translate(-225.000000, -223.000000)">
            <g id="Group">
                <path d="M677.83,720.387 C679.482,717.072 682.806,715.013 686.506,715.013 L806.357,715.013 C851.038,715.013 887.387,678.664 887.387,633.985 L887.387,314.274 C887.387,269.593 851.038,233.242 806.357,233.242 L315.643,233.242 C270.962,233.242 234.613,269.593 234.613,314.274 L234.613,638.284 C234.613,682.963 270.962,719.313 315.643,719.313 L591.909,719.313 C597.25,719.313 601.596,723.659 601.596,729.001 L601.596,873.664 L677.83,720.387" id="Fill-3" fill="#CACDE1"></path>
                <path d="M591.909,719.313 L315.643,719.313 C270.962,719.313 234.613,682.963 234.613,638.284 L234.613,314.274 C234.613,269.593 270.962,233.242 315.643,233.242 L806.357,233.242 C851.038,233.242 887.387,269.593 887.387,314.274 L887.387,633.985 C887.387,678.664 851.038,715.013 806.357,715.013 L686.506,715.013 C682.806,715.013 679.482,717.072 677.83,720.387 L601.596,873.664 L601.596,729.001 C601.596,723.659 597.25,719.313 591.909,719.313 Z M806.357,223.971 L315.643,223.971 C265.85,223.971 225.341,264.48 225.341,314.274 L225.341,638.284 C225.341,688.076 265.85,728.584 315.643,728.584 L591.909,728.584 C592.138,728.584 592.325,728.771 592.325,729.001 L592.325,893.394 C592.325,895.555 593.795,897.411 595.906,897.908 C596.253,897.989 596.608,898.029 596.96,898.029 C598.732,898.029 600.323,897.044 601.112,895.458 L686.131,724.519 C686.205,724.37 686.342,724.285 686.506,724.285 L806.357,724.285 C856.15,724.285 896.659,683.776 896.659,633.985 L896.659,314.274 C896.659,264.48 856.15,223.971 806.357,223.971 L806.357,223.971 Z" id="Fill-4" fill="#333333"></path>
                <polygon id="Fill-5" fill="#B5E8E8" points="364.295 626.109 757.705 626.109 757.705 374.08 364.295 374.08"></polygon>
                <path d="M364.295,626.109 L757.705,626.109 L757.705,374.08 L364.295,374.08 L364.295,626.109 Z M762.34,364.808 L359.66,364.808 C357.103,364.808 355.024,366.887 355.024,369.444 L355.024,630.745 C355.024,633.301 357.103,635.381 359.66,635.381 L762.34,635.381 C764.896,635.381 766.976,633.301 766.976,630.745 L766.976,369.444 C766.976,366.887 764.896,364.808 762.34,364.808 L762.34,364.808 Z" id="Fill-6" fill="#333333"></path>
                <polygon id="Fill-7" fill="#EEEEEE" points="364.295 364.808 757.705 364.808 757.705 319.785 364.295 319.785"></polygon>
                <path d="M364.295,364.808 L757.705,364.808 L757.705,319.785 L364.295,319.785 L364.295,364.808 Z M762.34,310.514 L359.66,310.514 C357.103,310.514 355.024,312.593 355.024,315.149 L355.024,369.444 C355.024,372 357.103,374.08 359.66,374.08 L762.34,374.08 C764.896,374.08 766.976,372 766.976,369.444 L766.976,315.149 C766.976,312.593 764.896,310.514 762.34,310.514 L762.34,310.514 Z" id="Fill-8" fill="#333333"></path>
                <path d="M518.869,545.465 C521.2,541.872 520.171,537.049 516.575,534.715 L455.12,494.884 L516.462,456.619 C520.097,454.35 521.209,449.546 518.942,445.911 C516.675,442.277 511.872,441.163 508.234,443.43 L436.522,488.164 C434.255,489.58 432.888,492.02 432.865705,494.69 C432.843,497.363 434.167,499.826 436.41,501.281 L508.122,547.761 C509.383,548.578 510.843,549.009 512.342,549.009 C514.991,549.009 517.431,547.684 518.869,545.465" id="Fill-9" fill="#333333"></path>
                <path d="M685.477,488.164 L613.764,443.429 C610.124,441.165 605.323,442.279 603.059,445.911 C600.79,449.546 601.903,454.35 605.539,456.619 L666.88,494.884 L605.424,534.715 C601.829,537.049 600.8,541.872 603.131,545.464 C604.569,547.684 607.009,549.009 609.658,549.009 C611.159,549.009 612.619,548.577 613.879,547.76 L685.591,501.281 C687.832,499.826 689.157,497.363 689.134295,494.69 C689.112,492.02 687.745,489.58 685.477,488.164" id="Fill-10" fill="#333333"></path>
                <path d="M603.326,399.719 C602.491,397.817 600.965,396.356 599.032,395.604 C597.098,394.85 594.987,394.895 593.085,395.729 C591.185,396.563 589.723,398.088 588.97,400.021 L517.905,582.37 C517.15,584.305 517.195,586.417 518.03,588.318 C518.865,590.22 520.39,591.682 522.324,592.434 C523.234,592.789 524.183,592.968 525.143,592.968 C528.37,592.968 531.212,591.025 532.386,588.017 L603.45,405.667 C604.205,403.733 604.161,401.621 603.326,399.719" id="Fill-11" fill="#333333"></path>
                <path d="M395.383,333.866 C390.734,333.866 386.952,337.648 386.952,342.297 C386.952,346.946 390.734,350.728 395.383,350.728 C400.032,350.728 403.814,346.946 403.814,342.297 C403.814,337.648 400.032,333.866 395.383,333.866" id="Fill-12" fill="#9D2D32"></path>
                <path d="M403.814,342.297 C403.814,346.946 400.032,350.728 395.383,350.728 C390.734,350.728 386.952,346.946 386.952,342.297 C386.952,337.648 390.734,333.866 395.383,333.866 C400.032,333.866 403.814,337.648 403.814,342.297 Z M395.383,324.594 C385.622,324.594 377.68,332.535 377.68,342.297 C377.68,352.058 385.622,359.999 395.383,359.999 C405.144,359.999 413.085,352.058 413.085,342.297 C413.085,332.535 405.144,324.594 395.383,324.594 L395.383,324.594 Z" id="Fill-13" fill="#333333"></path>
                <path d="M435.672,333.866 C431.023,333.866 427.241,337.648 427.241,342.297 C427.241,346.946 431.023,350.728 435.672,350.728 C440.32,350.728 444.102,346.946 444.102,342.297 C444.102,337.648 440.32,333.866 435.672,333.866" id="Fill-14" fill="#F3CD30"></path>
                <path d="M444.102,342.297 C444.102,346.946 440.32,350.728 435.672,350.728 C431.023,350.728 427.241,346.946 427.241,342.297 C427.241,337.648 431.023,333.866 435.672,333.866 C440.32,333.866 444.102,337.648 444.102,342.297 Z M435.672,324.594 C425.911,324.594 417.969,332.535 417.969,342.297 C417.969,352.058 425.911,359.999 435.672,359.999 C445.433,359.999 453.374,352.058 453.374,342.297 C453.374,332.535 445.433,324.594 435.672,324.594 L435.672,324.594 Z" id="Fill-15" fill="#333333"></path>
                <path d="M475.96,333.866 C471.311,333.866 467.529,337.648 467.529,342.297 C467.529,346.946 471.311,350.728 475.96,350.728 C480.609,350.728 484.392,346.946 484.392,342.297 C484.392,337.648 480.609,333.866 475.96,333.866" id="Fill-16" fill="#67B27D"></path>
                <path d="M484.392,342.297 C484.392,346.946 480.609,350.728 475.96,350.728 C471.311,350.728 467.529,346.946 467.529,342.297 C467.529,337.648 471.311,333.866 475.96,333.866 C480.609,333.866 484.392,337.648 484.392,342.297 Z M475.96,324.594 C466.199,324.594 458.258,332.535 458.258,342.297 C458.258,352.058 466.199,359.999 475.96,359.999 C485.722,359.999 493.663,352.058 493.663,342.297 C493.663,332.535 485.722,324.594 475.96,324.594 L475.96,324.594 Z" id="Fill-17" fill="#333333"></path>
            </g>
        </g>
    </g>
</svg>
